<?xml version="1.0" encoding="UTF-8"?>
<svg id="Layer_1" data-name="Layer 1" xmlns="http://www.w3.org/2000/svg" viewBox="0 0 1274.59 1334.67">
  <defs>
    <style>
      .cls-1 {
        fill: #ee2c52;
      }
    </style>
  </defs>
  <path class="cls-1" d="M920.45,553.12c-125.46-4.94-256.19,6.75-381.05.11-71.65-3.81-136.01-49.1-136.34-124.98-.03-.37-.06-.74-.07-1.11,0-.48,0-.96,0-1.44,0-.08-.03-.83-.02-.8-.04-.51-.14-1.26-.12-2.04-.32-1.12-.71-2.22-1.24-3.24-1.54-2.94-4.25-5.44-6.65-7.67-1.03-.96-2.08-1.95-3.16-2.91l-1.11.53c-44.2,47.94-93.43,91.23-136.03,140.57-75.5,102.54-9.09,247.93,116.47,258.79l312.5-.04-220.11,215.89,181.81,184.53c20.31-18.34,39.87-38.33,59.21-57.93,76.28-77.25,152.96-154.6,229.04-232.11,41.08-41.85,105.28-97.04,125.47-151.8,36.63-99.37-34.86-205.66-138.58-214.36Z"/>
  <path class="cls-1" d="M752.3,380.5c-34.33,35-69.4,69.34-103.87,104.22l-3.12,1.82-164.89-166.23,165.84-167.57,164.7,166.84-.68,2.03c-20.02,18.95-38.7,39.24-57.98,58.9Z"/>
</svg>